<?xml version="1.0" encoding="UTF-8"?>
<svg version="1.1" xmlns="http://www.w3.org/2000/svg" width="32" height="32">
<path d="M0 0 C3.96 0 7.92 0 12 0 C12 0.66 12 1.32 12 2 C12.66 2 13.32 2 14 2 C14 2.99 14 3.98 14 5 C13.34 5 12.68 5 12 5 C12 5.66 12 6.32 12 7 C13.3303125 6.87625 13.3303125 6.87625 14.6875 6.75 C18 7 18 7 20.875 8.4375 C23.59264895 11.7146649 23.524562 13.74184183 23.46875 17.87890625 C22.89916171 20.45629325 21.9088395 21.24211465 20 23 C19.67 23.99 19.34 24.98 19 26 C10.75 26 2.5 26 -6 26 C-5.67 24.68 -5.34 23.36 -5 22 C-5.66 21.34 -6.32 20.68 -7 20 C-7.56032396 16.9447599 -7.54826675 14.05618001 -7 11 C-4.625 8.4375 -4.625 8.4375 -2 7 C-1.34 7 -0.68 7 0 7 C0 4.69 0 2.38 0 0 Z " fill="#453D4D" transform="translate(8,3)"/>
<path d="M0 0 C1.98 0 3.96 0 6 0 C6 1.98 6 3.96 6 6 C5.01 6 4.02 6 3 6 C3 6.66 3 7.32 3 8 C3.763125 8.0825 4.52625 8.165 5.3125 8.25 C8 9 8 9 9.875 10.625 C11.51175762 14.0803772 10.92777204 16.35518125 10 20 C8.32647543 22.27158665 7.46717322 22.92044797 4.66015625 23.3984375 C3.80292969 23.39070313 2.94570312 23.38296875 2.0625 23.375 C1.20785156 23.38273437 0.35320313 23.39046875 -0.52734375 23.3984375 C-3.52116154 22.91602136 -4.88137633 22.16195915 -7 20 C-7.81788521 16.9371609 -7.66378332 14.09021812 -7 11 C-4.625 8.4375 -4.625 8.4375 -2 7 C-1.34 7 -0.68 7 0 7 C0 4.69 0 2.38 0 0 Z " fill="#4AB9E6" transform="translate(8,3)"/>
<path d="M0 0 C3.57423953 -0.3324874 5.63583344 -0.18208328 8.875 1.4375 C11.59264895 4.7146649 11.524562 6.74184183 11.46875 10.87890625 C10.89452228 13.47728668 10.12771048 14.42930807 8 16 C7.01 16 6.02 16 5 16 C5 14.35 5 12.7 5 11 C3.35 11 1.7 11 0 11 C0 9.35 0 7.7 0 6 C1.65 6 3.3 6 5 6 C3.35 4.02 1.7 2.04 0 0 Z " fill="#2385C0" transform="translate(20,10)"/>
<path d="M0 0 C1.98 0 3.96 0 6 0 C6 0.66 6 1.32 6 2 C6.66 2 7.32 2 8 2 C8 2.99 8 3.98 8 5 C7.34 5 6.68 5 6 5 C6 5.99 6 6.98 6 8 C6.639375 8.268125 7.27875 8.53625 7.9375 8.8125 C10 10 10 10 11 13 C9.35 13 7.7 13 6 13 C5.67 13.99 5.34 14.98 5 16 C4.4121875 14.576875 4.4121875 14.576875 3.8125 13.125 C1.80206144 9.65872662 0.77300358 9.0197307 -3 8 C-3 7.34 -3 6.68 -3 6 C-2.01 6 -1.02 6 0 6 C0 4.02 0 2.04 0 0 Z " fill="#4C4C5E" transform="translate(14,3)"/>
<path d="M0 0 C0.12375 0.639375 0.2475 1.27875 0.375 1.9375 C0.58125 2.618125 0.7875 3.29875 1 4 C1.66 4.33 2.32 4.66 3 5 C-0.18824568 6.59412284 -3.62896662 6.10174735 -7.125 6.0625 C-7.87910156 6.05798828 -8.63320312 6.05347656 -9.41015625 6.04882812 C-11.27347127 6.03703499 -13.13674555 6.01909942 -15 6 C-15 5.01 -15 4.02 -15 3 C-11.28469673 1.76156558 -8.15676642 2.01773985 -4.27734375 2.16015625 C-1.7988073 2.23598013 -1.7988073 2.23598013 0 0 Z " fill="#52586D" transform="translate(17,23)"/>
<path d="M0 0 C1.98 0 3.96 0 6 0 C6 0.66 6 1.32 6 2 C6.66 2 7.32 2 8 2 C8 2.99 8 3.98 8 5 C7.34 5 6.68 5 6 5 C6 5.66 6 6.32 6 7 C3.03 6.505 3.03 6.505 0 6 C0 4.02 0 2.04 0 0 Z " fill="#2287C2" transform="translate(14,3)"/>
<path d="M0 0 C1.52519276 0.08937803 3.04681929 0.24537146 4.5625 0.4375 C5.80193359 0.59025391 5.80193359 0.59025391 7.06640625 0.74609375 C7.70449219 0.82988281 8.34257812 0.91367187 9 1 C9 1.99 9 2.98 9 4 C4.545 4.495 4.545 4.495 0 5 C-0.33 3.68 -0.66 2.36 -1 1 C-0.67 0.67 -0.34 0.34 0 0 Z " fill="#A1C2D9" transform="translate(2,16)"/>
<path d="M0 0 C1.98 0 3.96 0 6 0 C6 1.98 6 3.96 6 6 C4.02 6 2.04 6 0 6 C0 4.02 0 2.04 0 0 Z " fill="#56D1FA" transform="translate(8,3)"/>
<path d="M0 0 C0 1.98 0 3.96 0 6 C-1.98 6 -3.96 6 -6 6 C-6 4.35 -6 2.7 -6 1 C-1.125 0 -1.125 0 0 0 Z " fill="#8297AF" transform="translate(26,15)"/>
<path d="M0 0 C2.31 0 4.62 0 7 0 C7 0.99 7 1.98 7 3 C4.69 3 2.38 3 0 3 C0 2.01 0 1.02 0 0 Z " fill="#4C5065" transform="translate(15,5)"/>
<path d="M0 0 C3.375 -0.125 3.375 -0.125 7 0 C7.66 0.66 8.32 1.32 9 2 C5.62182575 2.84454356 3.32534757 3.10844919 0 2 C0 1.34 0 0.68 0 0 Z " fill="#3D5774" transform="translate(11,9)"/>
</svg>
